Coordinates
version=1
nRows=17
nColumns=24
inDegrees=yes

Units are S.I. units (second, meters, Newtons, ...)
Angles are in degrees.

endheader
time	pelvis_tilt	pelvis_list	pelvis_rotation	pelvis_tx	pelvis_ty	pelvis_tz	hip_flexion_r	hip_adduction_r	hip_rotation_r	knee_angle_r	ankle_angle_r	subtalar_angle_r	mtp_angle_r	hip_flexion_l	hip_adduction_l	hip_rotation_l	knee_angle_l	ankle_angle_l	subtalar_angle_l	mtp_angle_l	lumbar_extension	lumbar_bending	lumbar_rotation
      1.10833333	     -2.16625122	     -3.98606802	     -2.93839063	     -0.12833257	      1.05110360	      0.34674783	    -11.97830582	      9.06027455	      2.10095179	     -6.16494400	      6.79870574	     -9.31747952	      3.02095749	     22.19071171	     -2.38343423	     -7.84211253	      4.48405748	      5.58720229	      3.79607889	     -1.41884884	      5.07765592	      7.70113278	      1.07788691
      1.11250000	     -2.17315863	     -4.00418024	     -2.92822122	     -0.12264233	      1.05064358	      0.34663610	    -12.09347984	      9.05901889	      2.12187669	     -6.57710686	      6.77399778	     -9.32252268	      3.02632973	     22.16515652	     -2.33480566	     -7.74731731	      4.32870414	      5.60512972	      3.86866933	     -1.42395554	      5.12369097	      7.68874804	      1.08284554
      1.11666667	     -2.17358732	     -4.02820955	     -2.82819964	     -0.11693604	      1.05016174	      0.34640366	    -12.19830266	      9.08354352	      1.99748777	     -7.01091507	      6.75019561	     -9.30563584	      3.05533412	     22.16019974	     -2.26259132	     -7.55858970	      4.07318478	      5.74960408	      4.14190825	     -1.44728789	      5.09396581	      7.71991243	      1.08138697
      1.12083333	     -2.15923224	     -4.03152740	     -2.83005437	     -0.11116795	      1.04978946	      0.34635805	    -12.31264726	      9.06503783	      2.03259168	     -7.47156655	      6.70456386	     -9.29961398	      3.06139168	     22.11102963	     -2.21404246	     -7.49322630	      3.79513659	      5.73489238	      4.17695671	     -1.45125765	      5.15728865	      7.68142897	      1.08847210
      1.12500000	     -2.14796803	     -4.03519953	     -2.83294509	     -0.10537502	      1.04943393	      0.34632007	    -12.40486896	      9.04675924	      2.03807465	     -7.97133264	      6.64558608	     -9.29099350	      3.06844740	     22.06166237	     -2.16928445	     -7.40117932	      3.47660583	      5.71091740	      4.22053633	     -1.45459428	      5.20091982	      7.63930755	      1.09685271
      1.12916667	     -2.13226342	     -4.03689488	     -2.83129439	     -0.09955840	      1.04910478	      0.34627899	    -12.48443723	      9.02671719	      2.01843865	     -8.50380811	      6.57181977	     -9.27630310	      3.07617614	     22.00487552	     -2.12549864	     -7.29216995	      3.12165868	      5.67043534	      4.26278996	     -1.45714012	      5.23597188	      7.59584531	      1.10732376
      1.13333333	     -2.14589802	     -4.03536368	     -2.75733680	     -0.09369596	      1.04872836	      0.34607079	    -12.50214567	      9.01250269	      1.78803380	     -9.07574939	      6.39802558	     -9.17522038	      3.10564805	     21.99450610	     -2.04535453	     -7.11901382	      2.72040520	      5.55280107	      4.33235703	     -1.46473321	      5.17831535	      7.57055429	      1.12188293
      1.13750000	     -2.10575613	     -4.02680483	     -2.75879481	     -0.08780027	      1.04850047	      0.34608319	    -12.58260991	      8.98040449	      1.78710394	     -9.65967138	      6.31846456	     -9.14727090	      3.11538268	     21.89243045	     -2.00182693	     -6.99893447	      2.33172002	      5.48462757	      4.34420856	     -1.46598805	      5.26190677	      7.52102401	      1.13601980
      1.14166667	     -2.11717117	     -4.00589361	     -2.70444582	     -0.08186041	      1.04819739	      0.34586421	    -12.56130843	      8.93442421	      1.51417429	    -10.31269404	      6.09685405	     -8.99833732	      3.15256277	     21.85098076	     -1.90998090	     -6.80836779	      1.93180047	      5.22946155	      4.29395649	     -1.47038558	      5.21505939	      7.46684157	      1.15692685
      1.14583333	     -2.06735256	     -3.99384212	     -2.70555134	     -0.07592438	      1.04804704	      0.34588700	    -12.61369797	      8.89532818	      1.50102956	    -10.97009590	      5.99989807	     -8.95958034	      3.16438188	     21.71997823	     -1.86903241	     -6.67604125	      1.53761107	      5.12650036	      4.27650264	     -1.47052098	      5.31615011	      7.40716898	      1.17430835
      1.15000000	     -2.05420187	     -3.95399108	     -2.55737191	     -0.06985235	      1.04781339	      0.34548114	    -12.58964162	      8.83258928	      1.06149675	    -11.65288504	      5.63222750	     -8.54674294	      3.25918500	     21.63651408	     -1.71926725	     -6.34453517	      1.15734682	      4.52533295	      3.88161801	     -1.46974885	      5.37588266	      7.34989381	      1.21987206
      1.15416667	     -2.02276850	     -3.91584907	     -2.61701895	     -0.06386646	      1.04774199	      0.34553234	    -12.56704956	      8.74423638	      1.02532192	    -12.42475873	      5.54368856	     -8.53457244	      3.27285690	     21.48269315	     -1.67293053	     -6.19786773	      0.80724358	      4.42841210	      3.85384681	     -1.46781307	      5.42148675	      7.27176484	      1.22913084
      1.15833333	     -2.02361931	     -3.82213056	     -2.53273230	     -0.05761936	      1.04761600	      0.34501385	    -12.47952522	      8.57873758	      0.53882696	    -13.21285125	      5.15284035	     -7.95455874	      3.46465652	     21.32320228	     -1.47375646	     -5.63735592	      0.57628313	      3.56049591	      2.95774979	     -1.44227264	      5.49565354	      7.20881954	      1.26564885
      1.16250000	     -2.02214419	     -3.77962477	     -2.53665502	     -0.05163963	      1.04754353	      0.34490379	    -12.35901308	      8.48315472	      0.30834968	    -14.08636589	      4.99542163	     -7.90284664	      3.51410903	     21.22195763	     -1.39970122	     -5.56821324	      0.18690457	      3.36833903	      2.78382076	     -1.43227454	      5.41587496	      7.07575839	      1.27511523
      1.16666667	     -1.97811040	     -3.72013907	     -2.43294063	     -0.04552121	      1.04753942	      0.34457500	    -12.27962951	      8.37388537	     -0.06673768	    -14.93214891	      4.53516686	     -7.53625245	      3.63824069	     21.06216825	     -1.26284318	     -5.32547491	     -0.14323110	      2.70374522	      2.36594085	     -1.40975294	      5.51820805	      6.95872166	      1.31586209
      1.17083333	     -1.91788073	     -3.66788201	     -2.49508222	     -0.03950875	      1.04766487	      0.34459957	    -12.18629041	      8.24786613	     -0.15792330	    -15.87795243	      4.39689788	     -7.51468782	      3.65706428	     20.84632257	     -1.21574960	     -5.18220453	     -0.45688955	      2.57927617	      2.34960544	     -1.40498485	      5.57342640	      6.87649729	      1.32469996
      1.17500000	     -1.91219051	     -3.56439846	     -2.36184549	     -0.03326005	      1.04767429	      0.34406629	    -12.00630359	      8.06665669	     -0.72227604	    -16.81461325	      3.72617255	     -6.99349045	      3.79445039	     20.71953893	     -1.01210811	     -4.98275949	     -0.77251597	      1.72386161	      1.80652235	     -1.38103127	      5.58595316	      6.70423423	      1.37506131
